<mxfile host="app.diagrams.net" modified="2023-12-24T16:13:30.389Z" agent="Mozilla/5.0 (Macintosh; Intel Mac OS X 10_15_7) AppleWebKit/537.36 (KHTML, like Gecko) Chrome/116.0.0.0 Whale/3.22.205.18 Safari/537.36" version="21.5.2" etag="FbpZlvZpCSU70s3Dc-16" type="github">
  <diagram name="페이지-1" id="Xa38Sybxr32NkZHonVsy">
    <mxGraphModel>
      <root>
        <mxCell id="0" />
        <mxCell id="1" parent="0" />
      </root>
    </mxGraphModel>
  </diagram>
</mxfile>
